G04 #@! TF.FileFunction,Copper,L2,Bot,Signal*
%FSLAX46Y46*%
G04 Gerber Fmt 4.6, Leading zero omitted, Abs format (unit mm)*
G04 Created by KiCad (PCBNEW (2015-01-16 BZR 5376)-product) date 4/3/2015 6:07:08 PM*
%MOMM*%
G01*
G04 APERTURE LIST*
%ADD10C,0.100000*%
%ADD11R,1.300000X1.300000*%
%ADD12C,1.300000*%
%ADD13R,1.727200X2.032000*%
%ADD14O,1.727200X2.032000*%
%ADD15C,1.600000*%
%ADD16R,2.032000X2.032000*%
%ADD17O,2.032000X2.032000*%
%ADD18C,2.200000*%
%ADD19C,0.685800*%
%ADD20C,0.254000*%
%ADD21C,0.152400*%
G04 APERTURE END LIST*
D10*
D11*
X200609200Y-96139000D03*
D12*
X198609200Y-96139000D03*
D13*
X174955200Y-107000000D03*
D14*
X177495200Y-107000000D03*
X180035200Y-107000000D03*
X182575200Y-107000000D03*
X185115200Y-107000000D03*
X187655200Y-107000000D03*
D15*
X174982600Y-94462600D03*
X181582600Y-94462600D03*
D16*
X191211200Y-107010200D03*
D17*
X193751200Y-107010200D03*
D18*
X199085200Y-104190800D03*
X199085200Y-100690800D03*
D19*
X182600600Y-95529400D03*
X173482000Y-94208600D03*
X178790600Y-105003600D03*
X178714400Y-102336600D03*
X180441600Y-102209600D03*
X181356000Y-101168200D03*
X181356000Y-99695000D03*
X181356000Y-98298000D03*
X184861200Y-94970600D03*
X191693800Y-95529400D03*
X193675000Y-94157800D03*
X191643000Y-94183200D03*
X186690000Y-94030800D03*
X195580000Y-94132400D03*
X195554600Y-95529400D03*
X193675000Y-95529400D03*
X192811400Y-104216200D03*
X198526400Y-98171000D03*
X198069200Y-94234000D03*
X193090800Y-98602800D03*
X191439800Y-98323400D03*
X186537600Y-98602800D03*
X185191400Y-99517200D03*
X194183000Y-99974400D03*
X201777600Y-97129600D03*
X201930000Y-98958400D03*
X201879200Y-101092000D03*
X201803000Y-103047800D03*
X201752200Y-105156000D03*
X195427600Y-101142800D03*
X195656200Y-102819200D03*
X196723000Y-104190800D03*
X170713400Y-96723200D03*
X179628800Y-98602800D03*
X177673000Y-99288600D03*
X175615600Y-99288600D03*
X173532800Y-99288600D03*
X172796200Y-106273600D03*
D20*
X186690000Y-94030800D02*
X186588400Y-94132400D01*
X182372000Y-95758000D02*
X182600600Y-95529400D01*
X181102000Y-95758000D02*
X182372000Y-95758000D01*
X180492400Y-95148400D02*
X181102000Y-95758000D01*
X176961800Y-95148400D02*
X180492400Y-95148400D01*
X176377600Y-95732600D02*
X176961800Y-95148400D01*
X174294800Y-95732600D02*
X176377600Y-95732600D01*
X173964600Y-95732600D02*
X174294800Y-95732600D01*
X173964600Y-95021400D02*
X173964600Y-95732600D01*
X173482000Y-94208600D02*
X173964600Y-95021400D01*
X178790600Y-105003600D02*
X178714400Y-104927400D01*
X178714400Y-104927400D02*
X178714400Y-102336600D01*
X180441600Y-102209600D02*
X181356000Y-101295200D01*
X181356000Y-101295200D02*
X181356000Y-101168200D01*
X181356000Y-99695000D02*
X181356000Y-98298000D01*
X184861200Y-94970600D02*
X184810400Y-94919800D01*
X185801000Y-94030800D02*
X184861200Y-94970600D01*
X186690000Y-94030800D02*
X185801000Y-94030800D01*
X193573400Y-95631000D02*
X193675000Y-95529400D01*
X191693800Y-95529400D02*
X193675000Y-95529400D01*
X191643000Y-94183200D02*
X193649600Y-94183200D01*
X193649600Y-94183200D02*
X193675000Y-94157800D01*
X195580000Y-94132400D02*
X195554600Y-94157800D01*
X195554600Y-94157800D02*
X195554600Y-95529400D01*
X198526400Y-98171000D02*
X198609200Y-98088200D01*
X198609200Y-98088200D02*
X198609200Y-96139000D01*
X198609200Y-94774000D02*
X198069200Y-94234000D01*
X198609200Y-96139000D02*
X198609200Y-94774000D01*
X193090800Y-98602800D02*
X191719200Y-98602800D01*
X191719200Y-98602800D02*
X191439800Y-98323400D01*
X191439800Y-98323400D02*
X191541400Y-98221800D01*
X186105800Y-98602800D02*
X186537600Y-98602800D01*
X185191400Y-99517200D02*
X186105800Y-98602800D01*
X194183000Y-99974400D02*
X194081400Y-100076000D01*
X199288400Y-105156000D02*
X199161400Y-105029000D01*
X201777600Y-97129600D02*
X201930000Y-97282000D01*
X201930000Y-97282000D02*
X201930000Y-98958400D01*
X201879200Y-101092000D02*
X201803000Y-101168200D01*
X201803000Y-101168200D02*
X201803000Y-103047800D01*
X199288400Y-105156000D02*
X201752200Y-105156000D01*
X195656200Y-102920800D02*
X196723000Y-104190800D01*
X195376800Y-101092000D02*
X195427600Y-101142800D01*
X195376800Y-101092000D02*
X194183000Y-99974400D01*
X195656200Y-102819200D02*
X195656200Y-102920800D01*
X171805600Y-96723200D02*
X170713400Y-96723200D01*
X179628800Y-98602800D02*
X178943000Y-99288600D01*
X178943000Y-99288600D02*
X177673000Y-99288600D01*
X175615600Y-99288600D02*
X173532800Y-99288600D01*
X172796200Y-106273600D02*
X172770800Y-106299000D01*
X172770800Y-106299000D02*
X171602400Y-106299000D01*
D21*
G36*
X180035200Y-100177600D02*
X172618400Y-100177600D01*
X172618400Y-99618800D01*
X170561000Y-99618800D01*
X170561000Y-101803200D01*
X172466000Y-101803200D01*
X172466000Y-103378000D01*
X170561000Y-103378000D01*
X170561000Y-105613200D01*
X173101000Y-105613200D01*
X173101000Y-107213400D01*
X170586400Y-107213400D01*
X170586400Y-109118400D01*
X170281600Y-109118400D01*
X170281600Y-95504000D01*
X172974000Y-95504000D01*
X172974000Y-98323400D01*
X179324000Y-98323400D01*
X179324000Y-96189800D01*
X180035200Y-96189800D01*
X180035200Y-100177600D01*
X180035200Y-100177600D01*
G37*
X180035200Y-100177600D02*
X172618400Y-100177600D01*
X172618400Y-99618800D01*
X170561000Y-99618800D01*
X170561000Y-101803200D01*
X172466000Y-101803200D01*
X172466000Y-103378000D01*
X170561000Y-103378000D01*
X170561000Y-105613200D01*
X173101000Y-105613200D01*
X173101000Y-107213400D01*
X170586400Y-107213400D01*
X170586400Y-109118400D01*
X170281600Y-109118400D01*
X170281600Y-95504000D01*
X172974000Y-95504000D01*
X172974000Y-98323400D01*
X179324000Y-98323400D01*
X179324000Y-96189800D01*
X180035200Y-96189800D01*
X180035200Y-100177600D01*
G36*
X202539600Y-109067600D02*
X201487800Y-109067600D01*
X201487800Y-96834471D01*
X201487800Y-96373950D01*
X201487800Y-95904050D01*
X201487800Y-95443529D01*
X201452998Y-95359509D01*
X201388692Y-95295203D01*
X201304672Y-95260400D01*
X201213729Y-95260400D01*
X200844150Y-95260400D01*
X200787000Y-95317550D01*
X200787000Y-95961200D01*
X201430650Y-95961200D01*
X201487800Y-95904050D01*
X201487800Y-96373950D01*
X201430650Y-96316800D01*
X200787000Y-96316800D01*
X200787000Y-96960450D01*
X200844150Y-97017600D01*
X201213729Y-97017600D01*
X201304672Y-97017600D01*
X201388692Y-96982797D01*
X201452998Y-96918491D01*
X201487800Y-96834471D01*
X201487800Y-109067600D01*
X200432512Y-109067600D01*
X200432512Y-104331409D01*
X200383763Y-103805112D01*
X200276145Y-103545300D01*
X200119725Y-103407722D01*
X199868278Y-103659169D01*
X199868278Y-103156275D01*
X199730700Y-102999855D01*
X199225809Y-102843488D01*
X198699512Y-102892237D01*
X198439700Y-102999855D01*
X198302122Y-103156275D01*
X199085200Y-103939353D01*
X199868278Y-103156275D01*
X199868278Y-103659169D01*
X199336647Y-104190800D01*
X200119725Y-104973878D01*
X200276145Y-104836300D01*
X200432512Y-104331409D01*
X200432512Y-109067600D01*
X199868278Y-109067600D01*
X199868278Y-105225325D01*
X199085200Y-104442247D01*
X198833753Y-104693694D01*
X198833753Y-104190800D01*
X198050675Y-103407722D01*
X197894255Y-103545300D01*
X197737888Y-104050191D01*
X197786637Y-104576488D01*
X197894255Y-104836300D01*
X198050675Y-104973878D01*
X198833753Y-104190800D01*
X198833753Y-104693694D01*
X198302122Y-105225325D01*
X198439700Y-105381745D01*
X198944591Y-105538112D01*
X199470888Y-105489363D01*
X199730700Y-105381745D01*
X199868278Y-105225325D01*
X199868278Y-109067600D01*
X196062074Y-109067600D01*
X196036987Y-105449393D01*
X195655396Y-105053126D01*
X193058310Y-102197734D01*
X192540327Y-100177600D01*
X182549800Y-100177600D01*
X182549800Y-99009200D01*
X184531000Y-99009200D01*
X184531000Y-98355270D01*
X185442909Y-98091297D01*
X187591641Y-97358200D01*
X194124372Y-97358200D01*
X194597709Y-97867948D01*
X195110596Y-98393344D01*
X195467800Y-99118915D01*
X196173653Y-100458700D01*
X197113315Y-102019985D01*
X197700426Y-102819200D01*
X200259057Y-102819200D01*
X201114518Y-101990472D01*
X201244368Y-100458247D01*
X201141495Y-98477952D01*
X200566055Y-97536322D01*
X199974200Y-97043110D01*
X199974200Y-97017600D01*
X200004671Y-97017600D01*
X200374250Y-97017600D01*
X200431400Y-96960450D01*
X200431400Y-96316800D01*
X200411400Y-96316800D01*
X200411400Y-95961200D01*
X200431400Y-95961200D01*
X200431400Y-95317550D01*
X200374250Y-95260400D01*
X200004671Y-95260400D01*
X199974200Y-95260400D01*
X199974200Y-93370400D01*
X202539600Y-93370400D01*
X202539600Y-109067600D01*
X202539600Y-109067600D01*
G37*
X202539600Y-109067600D02*
X201487800Y-109067600D01*
X201487800Y-96834471D01*
X201487800Y-96373950D01*
X201487800Y-95904050D01*
X201487800Y-95443529D01*
X201452998Y-95359509D01*
X201388692Y-95295203D01*
X201304672Y-95260400D01*
X201213729Y-95260400D01*
X200844150Y-95260400D01*
X200787000Y-95317550D01*
X200787000Y-95961200D01*
X201430650Y-95961200D01*
X201487800Y-95904050D01*
X201487800Y-96373950D01*
X201430650Y-96316800D01*
X200787000Y-96316800D01*
X200787000Y-96960450D01*
X200844150Y-97017600D01*
X201213729Y-97017600D01*
X201304672Y-97017600D01*
X201388692Y-96982797D01*
X201452998Y-96918491D01*
X201487800Y-96834471D01*
X201487800Y-109067600D01*
X200432512Y-109067600D01*
X200432512Y-104331409D01*
X200383763Y-103805112D01*
X200276145Y-103545300D01*
X200119725Y-103407722D01*
X199868278Y-103659169D01*
X199868278Y-103156275D01*
X199730700Y-102999855D01*
X199225809Y-102843488D01*
X198699512Y-102892237D01*
X198439700Y-102999855D01*
X198302122Y-103156275D01*
X199085200Y-103939353D01*
X199868278Y-103156275D01*
X199868278Y-103659169D01*
X199336647Y-104190800D01*
X200119725Y-104973878D01*
X200276145Y-104836300D01*
X200432512Y-104331409D01*
X200432512Y-109067600D01*
X199868278Y-109067600D01*
X199868278Y-105225325D01*
X199085200Y-104442247D01*
X198833753Y-104693694D01*
X198833753Y-104190800D01*
X198050675Y-103407722D01*
X197894255Y-103545300D01*
X197737888Y-104050191D01*
X197786637Y-104576488D01*
X197894255Y-104836300D01*
X198050675Y-104973878D01*
X198833753Y-104190800D01*
X198833753Y-104693694D01*
X198302122Y-105225325D01*
X198439700Y-105381745D01*
X198944591Y-105538112D01*
X199470888Y-105489363D01*
X199730700Y-105381745D01*
X199868278Y-105225325D01*
X199868278Y-109067600D01*
X196062074Y-109067600D01*
X196036987Y-105449393D01*
X195655396Y-105053126D01*
X193058310Y-102197734D01*
X192540327Y-100177600D01*
X182549800Y-100177600D01*
X182549800Y-99009200D01*
X184531000Y-99009200D01*
X184531000Y-98355270D01*
X185442909Y-98091297D01*
X187591641Y-97358200D01*
X194124372Y-97358200D01*
X194597709Y-97867948D01*
X195110596Y-98393344D01*
X195467800Y-99118915D01*
X196173653Y-100458700D01*
X197113315Y-102019985D01*
X197700426Y-102819200D01*
X200259057Y-102819200D01*
X201114518Y-101990472D01*
X201244368Y-100458247D01*
X201141495Y-98477952D01*
X200566055Y-97536322D01*
X199974200Y-97043110D01*
X199974200Y-97017600D01*
X200004671Y-97017600D01*
X200374250Y-97017600D01*
X200431400Y-96960450D01*
X200431400Y-96316800D01*
X200411400Y-96316800D01*
X200411400Y-95961200D01*
X200431400Y-95961200D01*
X200431400Y-95317550D01*
X200374250Y-95260400D01*
X200004671Y-95260400D01*
X199974200Y-95260400D01*
X199974200Y-93370400D01*
X202539600Y-93370400D01*
X202539600Y-109067600D01*
G36*
X200660000Y-100756385D02*
X200561156Y-101448294D01*
X200432512Y-101679852D01*
X200432512Y-100831409D01*
X200383763Y-100305112D01*
X200276145Y-100045300D01*
X200119725Y-99907722D01*
X199868278Y-100159169D01*
X199868278Y-99656275D01*
X199730700Y-99499855D01*
X199225809Y-99343488D01*
X199063020Y-99358566D01*
X199063020Y-96844268D01*
X198609200Y-96390447D01*
X198357753Y-96641894D01*
X198357753Y-96139000D01*
X197903932Y-95685180D01*
X197794382Y-95766773D01*
X197713962Y-96106924D01*
X197769833Y-96451958D01*
X197794382Y-96511227D01*
X197903932Y-96592820D01*
X198357753Y-96139000D01*
X198357753Y-96641894D01*
X198155380Y-96844268D01*
X198236973Y-96953818D01*
X198577124Y-97034238D01*
X198922158Y-96978367D01*
X198981427Y-96953818D01*
X199063020Y-96844268D01*
X199063020Y-99358566D01*
X198699512Y-99392237D01*
X198439700Y-99499855D01*
X198302122Y-99656275D01*
X199085200Y-100439353D01*
X199868278Y-99656275D01*
X199868278Y-100159169D01*
X199336647Y-100690800D01*
X200119725Y-101473878D01*
X200276145Y-101336300D01*
X200432512Y-100831409D01*
X200432512Y-101679852D01*
X200317098Y-101887597D01*
X200039176Y-102235000D01*
X199868278Y-102235000D01*
X199868278Y-101725325D01*
X199085200Y-100942247D01*
X198833753Y-101193694D01*
X198833753Y-100690800D01*
X198050675Y-99907722D01*
X197894255Y-100045300D01*
X197737888Y-100550191D01*
X197786637Y-101076488D01*
X197894255Y-101336300D01*
X198050675Y-101473878D01*
X198833753Y-100690800D01*
X198833753Y-101193694D01*
X198302122Y-101725325D01*
X198439700Y-101881745D01*
X198944591Y-102038112D01*
X199470888Y-101989363D01*
X199730700Y-101881745D01*
X199868278Y-101725325D01*
X199868278Y-102235000D01*
X198208695Y-102235000D01*
X197525004Y-101331551D01*
X195798354Y-97725900D01*
X194857483Y-96393000D01*
X189534305Y-96393000D01*
X187569714Y-96418514D01*
X183934430Y-97269325D01*
X183658073Y-98425000D01*
X182611378Y-98425000D01*
X182611378Y-94258897D01*
X182455113Y-93880706D01*
X182166016Y-93591104D01*
X181788099Y-93434179D01*
X181378897Y-93433822D01*
X181000706Y-93590087D01*
X180711104Y-93879184D01*
X180554179Y-94257101D01*
X180553822Y-94666303D01*
X180710087Y-95044494D01*
X180999184Y-95334096D01*
X181377101Y-95491021D01*
X181786303Y-95491378D01*
X182164494Y-95335113D01*
X182454096Y-95046016D01*
X182611021Y-94668099D01*
X182611378Y-94258897D01*
X182611378Y-98425000D01*
X181991000Y-98425000D01*
X181991000Y-102355598D01*
X192161070Y-102336676D01*
X192748252Y-103217450D01*
X194077055Y-105159545D01*
X194952687Y-105777639D01*
X195300600Y-106009581D01*
X195300600Y-109067600D01*
X194940071Y-109067600D01*
X194940071Y-107378515D01*
X194940071Y-106641885D01*
X194708626Y-106214960D01*
X194331421Y-105909103D01*
X194119512Y-105821345D01*
X193929000Y-105836137D01*
X193929000Y-106832400D01*
X194925901Y-106832400D01*
X194940071Y-106641885D01*
X194940071Y-107378515D01*
X194925901Y-107188000D01*
X193929000Y-107188000D01*
X193929000Y-108184263D01*
X194119512Y-108199055D01*
X194331421Y-108111297D01*
X194708626Y-107805440D01*
X194940071Y-107378515D01*
X194940071Y-109067600D01*
X193573400Y-109067600D01*
X193573400Y-108184263D01*
X193573400Y-107188000D01*
X193573400Y-106832400D01*
X193573400Y-105836137D01*
X193382888Y-105821345D01*
X193170979Y-105909103D01*
X192793774Y-106214960D01*
X192562329Y-106641885D01*
X192576499Y-106832400D01*
X193573400Y-106832400D01*
X193573400Y-107188000D01*
X192576499Y-107188000D01*
X192562329Y-107378515D01*
X192793774Y-107805440D01*
X193170979Y-108111297D01*
X193382888Y-108199055D01*
X193573400Y-108184263D01*
X193573400Y-109067600D01*
X192460279Y-109067600D01*
X192460279Y-108026200D01*
X192460279Y-105994200D01*
X192443367Y-105907036D01*
X192393042Y-105830426D01*
X192317071Y-105779144D01*
X192227200Y-105761121D01*
X190195200Y-105761121D01*
X190108036Y-105778033D01*
X190031426Y-105828358D01*
X189980144Y-105904329D01*
X189962121Y-105994200D01*
X189962121Y-108026200D01*
X189979033Y-108113364D01*
X190029358Y-108189974D01*
X190105329Y-108241256D01*
X190195200Y-108259279D01*
X192227200Y-108259279D01*
X192314364Y-108242367D01*
X192390974Y-108192042D01*
X192442256Y-108116071D01*
X192460279Y-108026200D01*
X192460279Y-109067600D01*
X188727938Y-109067600D01*
X188727938Y-107348022D01*
X188727938Y-106651978D01*
X188571419Y-106256350D01*
X188275414Y-105950734D01*
X187999390Y-105811050D01*
X187833000Y-105827936D01*
X187833000Y-106822200D01*
X188688183Y-106822200D01*
X188727938Y-106651978D01*
X188727938Y-107348022D01*
X188688183Y-107177800D01*
X187833000Y-107177800D01*
X187833000Y-108172064D01*
X187999390Y-108188950D01*
X188275414Y-108049266D01*
X188571419Y-107743650D01*
X188727938Y-107348022D01*
X188727938Y-109067600D01*
X187477400Y-109067600D01*
X187477400Y-108172064D01*
X187477400Y-107177800D01*
X187477400Y-106822200D01*
X187477400Y-105827936D01*
X187311010Y-105811050D01*
X187034986Y-105950734D01*
X186738981Y-106256350D01*
X186582462Y-106651978D01*
X186622217Y-106822200D01*
X187477400Y-106822200D01*
X187477400Y-107177800D01*
X186622217Y-107177800D01*
X186582462Y-107348022D01*
X186738981Y-107743650D01*
X187034986Y-108049266D01*
X187311010Y-108188950D01*
X187477400Y-108172064D01*
X187477400Y-109067600D01*
X186537600Y-109067600D01*
X186537600Y-106350386D01*
X186564187Y-104622212D01*
X181406610Y-104648000D01*
X181076600Y-104648000D01*
X179451000Y-104648000D01*
X179451000Y-105562400D01*
X178130200Y-105562400D01*
X178130200Y-104724200D01*
X178130200Y-104571800D01*
X178130200Y-101422200D01*
X180568600Y-101422200D01*
X180568600Y-95758000D01*
X177241200Y-95758000D01*
X177241200Y-97713800D01*
X176011378Y-97713800D01*
X176011378Y-94258897D01*
X175855113Y-93880706D01*
X175566016Y-93591104D01*
X175188099Y-93434179D01*
X174778897Y-93433822D01*
X174400706Y-93590087D01*
X174111104Y-93879184D01*
X173954179Y-94257101D01*
X173953822Y-94666303D01*
X174110087Y-95044494D01*
X174399184Y-95334096D01*
X174777101Y-95491021D01*
X175186303Y-95491378D01*
X175564494Y-95335113D01*
X175854096Y-95046016D01*
X176011021Y-94668099D01*
X176011378Y-94258897D01*
X176011378Y-97713800D01*
X173659800Y-97713800D01*
X173659800Y-95046800D01*
X170281600Y-95046800D01*
X170281600Y-93278600D01*
X199415400Y-93278600D01*
X199415400Y-95760354D01*
X199314468Y-95685180D01*
X199063020Y-95936627D01*
X199063020Y-95433732D01*
X198981427Y-95324182D01*
X198641276Y-95243762D01*
X198296242Y-95299633D01*
X198236973Y-95324182D01*
X198155380Y-95433732D01*
X198609200Y-95887553D01*
X199063020Y-95433732D01*
X199063020Y-95936627D01*
X198860647Y-96139000D01*
X199314468Y-96592820D01*
X199397998Y-96530606D01*
X199546069Y-97567102D01*
X199939944Y-98066010D01*
X200438642Y-98689382D01*
X200660000Y-99451838D01*
X200660000Y-100756385D01*
X200660000Y-100756385D01*
G37*
X200660000Y-100756385D02*
X200561156Y-101448294D01*
X200432512Y-101679852D01*
X200432512Y-100831409D01*
X200383763Y-100305112D01*
X200276145Y-100045300D01*
X200119725Y-99907722D01*
X199868278Y-100159169D01*
X199868278Y-99656275D01*
X199730700Y-99499855D01*
X199225809Y-99343488D01*
X199063020Y-99358566D01*
X199063020Y-96844268D01*
X198609200Y-96390447D01*
X198357753Y-96641894D01*
X198357753Y-96139000D01*
X197903932Y-95685180D01*
X197794382Y-95766773D01*
X197713962Y-96106924D01*
X197769833Y-96451958D01*
X197794382Y-96511227D01*
X197903932Y-96592820D01*
X198357753Y-96139000D01*
X198357753Y-96641894D01*
X198155380Y-96844268D01*
X198236973Y-96953818D01*
X198577124Y-97034238D01*
X198922158Y-96978367D01*
X198981427Y-96953818D01*
X199063020Y-96844268D01*
X199063020Y-99358566D01*
X198699512Y-99392237D01*
X198439700Y-99499855D01*
X198302122Y-99656275D01*
X199085200Y-100439353D01*
X199868278Y-99656275D01*
X199868278Y-100159169D01*
X199336647Y-100690800D01*
X200119725Y-101473878D01*
X200276145Y-101336300D01*
X200432512Y-100831409D01*
X200432512Y-101679852D01*
X200317098Y-101887597D01*
X200039176Y-102235000D01*
X199868278Y-102235000D01*
X199868278Y-101725325D01*
X199085200Y-100942247D01*
X198833753Y-101193694D01*
X198833753Y-100690800D01*
X198050675Y-99907722D01*
X197894255Y-100045300D01*
X197737888Y-100550191D01*
X197786637Y-101076488D01*
X197894255Y-101336300D01*
X198050675Y-101473878D01*
X198833753Y-100690800D01*
X198833753Y-101193694D01*
X198302122Y-101725325D01*
X198439700Y-101881745D01*
X198944591Y-102038112D01*
X199470888Y-101989363D01*
X199730700Y-101881745D01*
X199868278Y-101725325D01*
X199868278Y-102235000D01*
X198208695Y-102235000D01*
X197525004Y-101331551D01*
X195798354Y-97725900D01*
X194857483Y-96393000D01*
X189534305Y-96393000D01*
X187569714Y-96418514D01*
X183934430Y-97269325D01*
X183658073Y-98425000D01*
X182611378Y-98425000D01*
X182611378Y-94258897D01*
X182455113Y-93880706D01*
X182166016Y-93591104D01*
X181788099Y-93434179D01*
X181378897Y-93433822D01*
X181000706Y-93590087D01*
X180711104Y-93879184D01*
X180554179Y-94257101D01*
X180553822Y-94666303D01*
X180710087Y-95044494D01*
X180999184Y-95334096D01*
X181377101Y-95491021D01*
X181786303Y-95491378D01*
X182164494Y-95335113D01*
X182454096Y-95046016D01*
X182611021Y-94668099D01*
X182611378Y-94258897D01*
X182611378Y-98425000D01*
X181991000Y-98425000D01*
X181991000Y-102355598D01*
X192161070Y-102336676D01*
X192748252Y-103217450D01*
X194077055Y-105159545D01*
X194952687Y-105777639D01*
X195300600Y-106009581D01*
X195300600Y-109067600D01*
X194940071Y-109067600D01*
X194940071Y-107378515D01*
X194940071Y-106641885D01*
X194708626Y-106214960D01*
X194331421Y-105909103D01*
X194119512Y-105821345D01*
X193929000Y-105836137D01*
X193929000Y-106832400D01*
X194925901Y-106832400D01*
X194940071Y-106641885D01*
X194940071Y-107378515D01*
X194925901Y-107188000D01*
X193929000Y-107188000D01*
X193929000Y-108184263D01*
X194119512Y-108199055D01*
X194331421Y-108111297D01*
X194708626Y-107805440D01*
X194940071Y-107378515D01*
X194940071Y-109067600D01*
X193573400Y-109067600D01*
X193573400Y-108184263D01*
X193573400Y-107188000D01*
X193573400Y-106832400D01*
X193573400Y-105836137D01*
X193382888Y-105821345D01*
X193170979Y-105909103D01*
X192793774Y-106214960D01*
X192562329Y-106641885D01*
X192576499Y-106832400D01*
X193573400Y-106832400D01*
X193573400Y-107188000D01*
X192576499Y-107188000D01*
X192562329Y-107378515D01*
X192793774Y-107805440D01*
X193170979Y-108111297D01*
X193382888Y-108199055D01*
X193573400Y-108184263D01*
X193573400Y-109067600D01*
X192460279Y-109067600D01*
X192460279Y-108026200D01*
X192460279Y-105994200D01*
X192443367Y-105907036D01*
X192393042Y-105830426D01*
X192317071Y-105779144D01*
X192227200Y-105761121D01*
X190195200Y-105761121D01*
X190108036Y-105778033D01*
X190031426Y-105828358D01*
X189980144Y-105904329D01*
X189962121Y-105994200D01*
X189962121Y-108026200D01*
X189979033Y-108113364D01*
X190029358Y-108189974D01*
X190105329Y-108241256D01*
X190195200Y-108259279D01*
X192227200Y-108259279D01*
X192314364Y-108242367D01*
X192390974Y-108192042D01*
X192442256Y-108116071D01*
X192460279Y-108026200D01*
X192460279Y-109067600D01*
X188727938Y-109067600D01*
X188727938Y-107348022D01*
X188727938Y-106651978D01*
X188571419Y-106256350D01*
X188275414Y-105950734D01*
X187999390Y-105811050D01*
X187833000Y-105827936D01*
X187833000Y-106822200D01*
X188688183Y-106822200D01*
X188727938Y-106651978D01*
X188727938Y-107348022D01*
X188688183Y-107177800D01*
X187833000Y-107177800D01*
X187833000Y-108172064D01*
X187999390Y-108188950D01*
X188275414Y-108049266D01*
X188571419Y-107743650D01*
X188727938Y-107348022D01*
X188727938Y-109067600D01*
X187477400Y-109067600D01*
X187477400Y-108172064D01*
X187477400Y-107177800D01*
X187477400Y-106822200D01*
X187477400Y-105827936D01*
X187311010Y-105811050D01*
X187034986Y-105950734D01*
X186738981Y-106256350D01*
X186582462Y-106651978D01*
X186622217Y-106822200D01*
X187477400Y-106822200D01*
X187477400Y-107177800D01*
X186622217Y-107177800D01*
X186582462Y-107348022D01*
X186738981Y-107743650D01*
X187034986Y-108049266D01*
X187311010Y-108188950D01*
X187477400Y-108172064D01*
X187477400Y-109067600D01*
X186537600Y-109067600D01*
X186537600Y-106350386D01*
X186564187Y-104622212D01*
X181406610Y-104648000D01*
X181076600Y-104648000D01*
X179451000Y-104648000D01*
X179451000Y-105562400D01*
X178130200Y-105562400D01*
X178130200Y-104724200D01*
X178130200Y-104571800D01*
X178130200Y-101422200D01*
X180568600Y-101422200D01*
X180568600Y-95758000D01*
X177241200Y-95758000D01*
X177241200Y-97713800D01*
X176011378Y-97713800D01*
X176011378Y-94258897D01*
X175855113Y-93880706D01*
X175566016Y-93591104D01*
X175188099Y-93434179D01*
X174778897Y-93433822D01*
X174400706Y-93590087D01*
X174111104Y-93879184D01*
X173954179Y-94257101D01*
X173953822Y-94666303D01*
X174110087Y-95044494D01*
X174399184Y-95334096D01*
X174777101Y-95491021D01*
X175186303Y-95491378D01*
X175564494Y-95335113D01*
X175854096Y-95046016D01*
X176011021Y-94668099D01*
X176011378Y-94258897D01*
X176011378Y-97713800D01*
X173659800Y-97713800D01*
X173659800Y-95046800D01*
X170281600Y-95046800D01*
X170281600Y-93278600D01*
X199415400Y-93278600D01*
X199415400Y-95760354D01*
X199314468Y-95685180D01*
X199063020Y-95936627D01*
X199063020Y-95433732D01*
X198981427Y-95324182D01*
X198641276Y-95243762D01*
X198296242Y-95299633D01*
X198236973Y-95324182D01*
X198155380Y-95433732D01*
X198609200Y-95887553D01*
X199063020Y-95433732D01*
X199063020Y-95936627D01*
X198860647Y-96139000D01*
X199314468Y-96592820D01*
X199397998Y-96530606D01*
X199546069Y-97567102D01*
X199939944Y-98066010D01*
X200438642Y-98689382D01*
X200660000Y-99451838D01*
X200660000Y-100756385D01*
M02*
