G04 #@! TF.FileFunction,Soldermask,Top*
%FSLAX46Y46*%
G04 Gerber Fmt 4.6, Leading zero omitted, Abs format (unit mm)*
G04 Created by KiCad (PCBNEW (2015-01-16 BZR 5376)-product) date 4/3/2015 6:07:08 PM*
%MOMM*%
G01*
G04 APERTURE LIST*
%ADD10C,0.100000*%
%ADD11R,1.300000X1.300000*%
%ADD12C,1.300000*%
%ADD13R,1.250000X1.500000*%
%ADD14R,1.198880X1.198880*%
%ADD15R,1.727200X2.032000*%
%ADD16O,1.727200X2.032000*%
%ADD17R,1.500000X1.300000*%
%ADD18R,1.300000X1.500000*%
%ADD19R,0.400000X1.350000*%
%ADD20C,1.600000*%
%ADD21R,1.600000X1.400000*%
%ADD22R,1.900000X1.900000*%
%ADD23R,2.032000X2.032000*%
%ADD24O,2.032000X2.032000*%
%ADD25C,2.200000*%
%ADD26R,1.400000X0.300000*%
G04 APERTURE END LIST*
D10*
D11*
X200609200Y-96139000D03*
D12*
X198609200Y-96139000D03*
D13*
X171932600Y-96703200D03*
X171932600Y-94203200D03*
X188239400Y-98125600D03*
X188239400Y-95625600D03*
D14*
X171602400Y-106291380D03*
X171602400Y-108389420D03*
X171602400Y-102481380D03*
X171602400Y-104579420D03*
X171602400Y-98671380D03*
X171602400Y-100769420D03*
D15*
X174955200Y-107000000D03*
D16*
X177495200Y-107000000D03*
X180035200Y-107000000D03*
X182575200Y-107000000D03*
X185115200Y-107000000D03*
X187655200Y-107000000D03*
D17*
X188573400Y-103606600D03*
X185873400Y-103606600D03*
X173935400Y-103606600D03*
X176635400Y-103606600D03*
X176635400Y-101498400D03*
X173935400Y-101498400D03*
X182655200Y-103606600D03*
X179955200Y-103606600D03*
X188573400Y-101498400D03*
X185873400Y-101498400D03*
D18*
X191287400Y-101469200D03*
X191287400Y-104169200D03*
D19*
X178282600Y-97137600D03*
X177632600Y-97137600D03*
X176982600Y-97137600D03*
X178932600Y-97129600D03*
X179582600Y-97137600D03*
D20*
X174982600Y-94462600D03*
X181582600Y-94462600D03*
D21*
X181482600Y-96912600D03*
X175082600Y-96912600D03*
D22*
X179482600Y-94462600D03*
X177082600Y-94462600D03*
D23*
X191211200Y-107010200D03*
D24*
X193751200Y-107010200D03*
D25*
X199085200Y-104190800D03*
X199085200Y-100690800D03*
D26*
X179079800Y-99507800D03*
X179079800Y-100007800D03*
X179079800Y-100507800D03*
X179079800Y-101007800D03*
X179079800Y-101507800D03*
X183479800Y-101507800D03*
X183479800Y-101007800D03*
X183479800Y-100507800D03*
X183479800Y-100007800D03*
X183479800Y-99507800D03*
M02*
