M48
;DRILL file {kicad (2015-01-16 BZR 5376)-product} date 4/3/2015 6:07:11 PM
;FORMAT={2:4/ absolute / inch / keep zeros}
FMAT,2
INCH,TZ
T1C0.013
T2C0.024
T3C0.040
T4C0.047
%
G90
G05
M72
T1
X067210Y-038080
X068030Y-041840
X068300Y-037090
X068320Y-039090
X069140Y-039090
X069950Y-039090
X070360Y-040290
X070390Y-041340
X070720Y-038820
X071040Y-040240
X071400Y-038700
X071400Y-039250
X071400Y-039830
X071890Y-037610
X072780Y-037390
X072910Y-039180
X073440Y-038820
X073500Y-037020
X075370Y-038710
X075450Y-037080
X075470Y-037610
X075910Y-041030
X076020Y-038820
X076250Y-037070
X076250Y-037610
X076450Y-039360
X076940Y-039820
X076990Y-037610
X077000Y-037060
X077030Y-040480
X077450Y-041020
X077980Y-037100
X078160Y-038650
X079430Y-041400
X079440Y-038240
X079450Y-040570
X079480Y-039800
X079500Y-038960
T2
X078193Y-037850
X078980Y-037850
T3
X068880Y-042126
X069880Y-042126
X070880Y-042126
X071880Y-042126
X072880Y-042126
X073880Y-042126
X075280Y-042130
X076280Y-042130
T4
X068891Y-037190
X071489Y-037190
X078380Y-039642
X078380Y-041020
T0
M30
